<svg xmlns="http://www.w3.org/2000/svg" viewBox="0 0 160 160" width="100%" height="100%" fill="none">
  <defs>
    <linearGradient id="shieldBorderGrad" x1="0%" y1="0%" x2="100%" y2="100%">
      <stop offset="0%" stop-color="#F4B728" />
      <stop offset="50%" stop-color="#D49A1C" />
      <stop offset="100%" stop-color="#A67812" />
    </linearGradient>
    <linearGradient id="shieldFillGrad" x1="0%" y1="0%" x2="0%" y2="100%">
      <stop offset="0%" stop-color="#272220" />
      <stop offset="100%" stop-color="#110F10" />
    </linearGradient>
    <filter id="coinGlow" x="-30%" y="-30%" width="160%" height="160%">
      <feGaussianBlur stdDeviation="4" result="blur" />
      <feComposite in="SourceGraphic" in2="blur" operator="over" />
    </filter>
  </defs>

  <path
    d="M 80 30 L 120 23 L 114 83 C 114 108 80 132 80 132 C 80 132 46 108 46 83 L 40 23 Z"
    fill="url(#shieldFillGrad)"
    stroke="url(#shieldBorderGrad)"
    stroke-width="6"
  />
  <path
    d="M 80 38 L 108 33 L 104 81 C 104 98 80 116 80 116 C 80 116 56 98 56 81 L 52 33 Z"
    stroke="#F4B728"
    stroke-opacity="0.42"
    stroke-width="1.5"
  />

  <rect x="62" y="16" width="36" height="48" rx="5" fill="#FCFBF9" stroke="#D8DEE6" stroke-width="1.5" />
  <path d="M 98 24 L 90 16 L 98 16 Z" fill="#CBD5E1" />
  <rect x="68" y="28" width="8" height="8" rx="2" fill="none" stroke="#94A3B8" stroke-width="1.4" />
  <rect x="80" y="30" width="12" height="4" rx="2" fill="#E2E8F0" />
  <rect x="68" y="40" width="8" height="8" rx="2" fill="#FFFBEB" stroke="#F4B728" stroke-width="1.4" />
  <rect x="80" y="42" width="14" height="4" rx="2" fill="#F4B728" />
  <path d="M 69 44 L 71 46 L 76 39" stroke="#D49A1C" stroke-width="2.5" stroke-linecap="round" stroke-linejoin="round" />

  <circle cx="80" cy="92" r="21" fill="#F4B728" filter="url(#coinGlow)" />
  <g fill="#FFFFFF">
    <path d="M 72 83 L 88 83 L 88 88 L 78 100 L 88 100 L 88 105 L 72 105 L 72 100 L 82 88 L 72 88 Z" />
    <rect x="78.5" y="78" width="3" height="5" />
    <rect x="78.5" y="105" width="3" height="5" />
  </g>
</svg>
